<svg width="40" height="40" viewBox="0 0 40 40" fill="none" xmlns="http://www.w3.org/2000/svg">
<path opacity="0.05" fill-rule="evenodd" clip-rule="evenodd" d="M37.9894 8.02246H3.41071C2.30614 8.02246 1.41071 8.91786 1.41071 10.0225V16.1403C1.41071 16.7555 1.82919 17.2919 2.42593 17.4415V35.5158H38.9742V17.4415C39.5709 17.2919 39.9894 16.7555 39.9894 16.1403V10.0225C39.9894 8.91786 39.094 8.02246 37.9894 8.02246ZM23.7457 19.2235H17.6544V25.3331H23.7457V19.2235Z" fill="#0045FF"/>
<path fill-rule="evenodd" clip-rule="evenodd" d="M15.4315 1.92442C14.7026 1.92442 14.1117 2.5166 14.1117 3.24709V4.26453C14.1117 4.65788 13.7935 4.97674 13.401 4.97674C13.0085 4.97674 12.6904 4.65788 12.6904 4.26453V3.24709C12.6904 1.72992 13.9176 0.5 15.4315 0.5H24.5685C26.0824 0.5 27.3096 1.72992 27.3096 3.24709V4.77326C27.3096 5.1666 26.9915 5.48546 26.599 5.48546C26.2065 5.48546 25.8883 5.1666 25.8883 4.77326V3.24709C25.8883 2.5166 25.2974 1.92442 24.5685 1.92442H15.4315ZM0 9.3517C0 7.83457 1.22724 6.60465 2.74112 6.60465H37.2589C38.7728 6.60465 40 7.83457 40 9.3517V14.8622C40 16.137 39.1249 17.2443 37.8867 17.5362L23.7563 20.8683V24.1047C23.7563 24.779 23.2109 25.3256 22.5381 25.3256H17.4619C16.7891 25.3256 16.2437 24.779 16.2437 24.1047V20.8683L2.11329 17.5362C0.875087 17.2443 0 16.137 0 14.8622V9.3517ZM16.2437 19.405V19.0174C16.2437 18.3431 16.7891 17.7965 17.4619 17.7965H22.5381C23.2109 17.7965 23.7563 18.3431 23.7563 19.0174V19.405L37.5612 16.1497C38.1573 16.0091 38.5787 15.476 38.5787 14.8622V9.3517C38.5787 8.6213 37.9878 8.0291 37.2589 8.0291H2.74112C2.01221 8.0291 1.42132 8.6213 1.42132 9.3517V14.8622C1.42132 15.476 1.84266 16.0091 2.43883 16.1497L16.2437 19.405ZM17.665 19.2209V23.9012H22.335V19.2209H17.665ZM1.72589 19.8314C2.11837 19.8314 2.43655 20.1503 2.43655 20.5436V32.7529C2.43655 33.4834 3.02744 34.0756 3.75635 34.0756H36.2437C36.9726 34.0756 37.5635 33.4834 37.5635 32.7529V20.5436C37.5635 20.1503 37.8816 19.8314 38.2741 19.8314C38.6666 19.8314 38.9848 20.1503 38.9848 20.5436V32.7529C38.9848 34.2701 37.7575 35.5 36.2437 35.5H3.75635C2.24247 35.5 1.01523 34.2701 1.01523 32.7529V20.5436C1.01523 20.1503 1.3334 19.8314 1.72589 19.8314Z" fill="#0045FF"/>
</svg>
