<svg width="206" height="36" viewBox="0 0 206 36" fill="none" xmlns="http://www.w3.org/2000/svg">
<path d="M52.734 26.33C56.32 26.33 58.784 24.24 59.62 21.314L57.706 20.61C57.068 22.744 55.396 24.35 52.734 24.35C49.896 24.35 47.19 22.26 47.19 18.19C47.19 14.12 49.896 12.052 52.734 12.052C55.286 12.052 57.002 13.372 57.596 15.726L59.598 15.022C58.806 12.008 56.298 10.072 52.734 10.072C48.862 10.072 44.99 12.976 44.99 18.19C44.99 23.404 48.708 26.33 52.734 26.33ZM66.3623 24.482C64.6023 24.482 63.0623 23.162 63.0623 20.698C63.0623 18.256 64.6023 16.936 66.3623 16.936C68.1223 16.936 69.6623 18.256 69.6623 20.698C69.6623 23.162 68.1223 24.482 66.3623 24.482ZM66.3623 15.088C63.1943 15.088 60.9503 17.486 60.9503 20.698C60.9503 23.932 63.1943 26.33 66.3623 26.33C69.5303 26.33 71.7743 23.932 71.7743 20.698C71.7743 17.486 69.5303 15.088 66.3623 15.088ZM76.4662 26V19.62C76.4662 18.036 77.4562 16.936 78.9302 16.936C80.5142 16.936 81.1742 17.992 81.1742 19.356V26H83.2422V19.598C83.2422 18.08 84.2322 16.936 85.6842 16.936C87.2462 16.936 87.9282 17.97 87.9282 19.356V26H89.9742V19.136C89.9742 16.364 88.1702 15.11 86.3222 15.11C84.9802 15.11 83.6162 15.594 82.7802 17.112C82.2082 15.748 80.9322 15.11 79.6122 15.11C78.3802 15.11 77.0602 15.66 76.4002 16.826V15.418H74.4202V26H76.4662ZM95.3294 30.18V24.57C95.9014 25.516 97.1334 26.286 98.7614 26.286C101.863 26.286 103.689 23.844 103.689 20.698C103.689 17.618 101.995 15.176 98.8274 15.176C97.1114 15.176 95.8574 16.012 95.2854 17.068V15.418H93.2834V30.18H95.3294ZM101.577 20.698C101.577 22.876 100.367 24.438 98.4534 24.438C96.5614 24.438 95.3074 22.876 95.3074 20.698C95.3074 18.586 96.5614 17.002 98.4534 17.002C100.389 17.002 101.577 18.586 101.577 20.698ZM105.664 23.162C105.664 24.834 107.05 26.33 109.206 26.33C111.098 26.33 112.154 25.318 112.616 24.57C112.616 25.34 112.682 25.736 112.726 26H114.75C114.706 25.736 114.618 25.186 114.618 24.262V18.96C114.618 16.892 113.386 15.088 110.218 15.088C107.93 15.088 106.104 16.496 105.884 18.52L107.864 18.982C107.996 17.75 108.81 16.848 110.262 16.848C111.868 16.848 112.55 17.706 112.55 18.74C112.55 19.114 112.374 19.444 111.736 19.532L108.876 19.95C107.05 20.214 105.664 21.27 105.664 23.162ZM109.492 24.592C108.436 24.592 107.776 23.844 107.776 23.052C107.776 22.106 108.436 21.6 109.316 21.468L112.55 20.984V21.468C112.55 23.778 111.186 24.592 109.492 24.592ZM119.908 19.884C119.908 18.278 120.744 16.98 122.372 16.98C124.22 16.98 124.836 18.168 124.836 19.642V26H126.904V19.29C126.904 16.936 125.65 15.11 123.12 15.11C121.888 15.11 120.634 15.616 119.864 16.936V15.418H117.84V26H119.908V19.884ZM132.834 30.422L139.72 15.418H137.498L134.33 22.722L131.03 15.418H128.654L133.208 24.834L130.568 30.422H132.834ZM160.255 26V10.402H158.099V22.37L150.311 10.402H147.429V26H149.585V13.284L158.011 26H160.255ZM163.221 23.162C163.221 24.834 164.607 26.33 166.763 26.33C168.655 26.33 169.711 25.318 170.173 24.57C170.173 25.34 170.239 25.736 170.283 26H172.307C172.263 25.736 172.175 25.186 172.175 24.262V18.96C172.175 16.892 170.943 15.088 167.775 15.088C165.487 15.088 163.661 16.496 163.441 18.52L165.421 18.982C165.553 17.75 166.367 16.848 167.819 16.848C169.425 16.848 170.107 17.706 170.107 18.74C170.107 19.114 169.931 19.444 169.293 19.532L166.433 19.95C164.607 20.214 163.221 21.27 163.221 23.162ZM167.049 24.592C165.993 24.592 165.333 23.844 165.333 23.052C165.333 22.106 165.993 21.6 166.873 21.468L170.107 20.984V21.468C170.107 23.778 168.743 24.592 167.049 24.592ZM177.443 26V19.62C177.443 18.036 178.433 16.936 179.907 16.936C181.491 16.936 182.151 17.992 182.151 19.356V26H184.219V19.598C184.219 18.08 185.209 16.936 186.661 16.936C188.223 16.936 188.905 17.97 188.905 19.356V26H190.951V19.136C190.951 16.364 189.147 15.11 187.299 15.11C185.957 15.11 184.593 15.594 183.757 17.112C183.185 15.748 181.909 15.11 180.589 15.11C179.357 15.11 178.037 15.66 177.377 16.826V15.418H175.397V26H177.443ZM195.602 19.62C195.69 18.256 196.746 16.914 198.484 16.914C200.354 16.914 201.344 18.102 201.388 19.62H195.602ZM201.696 22.37C201.3 23.558 200.442 24.504 198.726 24.504C196.944 24.504 195.58 23.184 195.536 21.292H203.5C203.522 21.16 203.544 20.896 203.544 20.632C203.544 17.332 201.718 15.088 198.462 15.088C195.8 15.088 193.402 17.354 193.402 20.676C193.402 24.262 195.888 26.33 198.726 26.33C201.19 26.33 202.884 24.856 203.478 22.986L201.696 22.37Z" fill="#8697A8"/>
<circle opacity="0.5" cx="18" cy="18" r="18" fill="#8697A8"/>
<path d="M18.844 26.33C23.222 26.33 25.466 23.426 26.06 21.028L23.222 20.17C22.804 21.622 21.506 23.36 18.844 23.36C16.336 23.36 14.004 21.534 14.004 18.212C14.004 14.67 16.468 12.998 18.8 12.998C21.506 12.998 22.716 14.648 23.09 16.144L25.95 15.242C25.334 12.712 23.112 10.072 18.8 10.072C14.62 10.072 10.858 13.24 10.858 18.212C10.858 23.184 14.488 26.33 18.844 26.33Z" fill="white"/>
</svg>
